<?xml version="1.0" encoding="utf-8"?>
<!-- Generator: Adobe Illustrator 28.2.0, SVG Export Plug-In . SVG Version: 6.00 Build 0)  -->
<svg version="1.1" id="Ebene_1" xmlns="http://www.w3.org/2000/svg" xmlns:xlink="http://www.w3.org/1999/xlink" x="0px" y="0px"
	 width="70.37235px" height="42.4038px" viewBox="0 0 70.37235 42.4038" enable-background="new 0 0 70.37235 42.4038"
	 xml:space="preserve">
<path fill="#4975B9" d="M56.04982,0h-39.3445h-2.38266C6.41251,0,0,6.41251,0,14.32267v13.75861
	C0,35.99144,6.41251,42.4038,14.32267,42.4038h41.72715c7.91002,0,14.32253-6.41236,14.32253-14.32253V17.142v-2.81933V0H56.04982z"
	/>
<path fill="#FFFFFF" d="M13.11736,31.35961c-0.5563,0-0.9947,0.16291-1.3152,0.48757
	c-0.32035,0.32452-0.4811,0.76925-0.4811,1.33389v2.89856c0,0.56464,0.16075,1.00922,0.4811,1.33389
	c0.3205,0.32467,0.75889,0.48743,1.3152,0.48743h1.84634c0.09404,0,0.14091-0.04702,0.14091-0.14091v-0.29533
	c0-0.09403-0.04687-0.14091-0.14091-0.14091h-1.79529c-0.39339,0-0.69304-0.11172-0.89765-0.33401
	c-0.20561-0.22229-0.30784-0.53445-0.30784-0.93633V33.2061c0-0.40188,0.10223-0.71389,0.30784-0.93618
	c0.20461-0.22243,0.50425-0.333,0.89765-0.333h1.79529c0.09404,0,0.14091-0.04285,0.14091-0.1284v-0.30799
	c0-0.09389-0.04687-0.14091-0.14091-0.14091H13.11736z"/>
<path fill="#FFFFFF" d="M19.2735,31.35961h-1.10326c-0.5553,0-0.9937,0.16291-1.31419,0.48757
	c-0.32035,0.32452-0.4811,0.76925-0.4811,1.33389v2.89856c0,0.56464,0.16075,1.00922,0.4811,1.33389
	c0.3205,0.32467,0.7589,0.48743,1.31419,0.48743h1.10326c0.5553,0,0.99571-0.16277,1.32138-0.48743
	c0.32467-0.32467,0.48743-0.76925,0.48743-1.33389v-2.89856c0-0.56464-0.16276-1.00937-0.48743-1.33389
	C20.26921,31.52252,19.8288,31.35961,19.2735,31.35961z M20.44046,36.06712c0,0.40173-0.10439,0.71173-0.31417,0.92885
	c-0.20992,0.21826-0.51044,0.32783-0.90397,0.32783h-1.00103c-0.39239,0-0.69189-0.10957-0.89765-0.32783
	c-0.20446-0.21712-0.30784-0.52711-0.30784-0.92885v-2.87354c0-0.40188,0.10338-0.71188,0.30784-0.93
	c0.20576-0.21812,0.50526-0.32668,0.89765-0.32668h1.00103c0.39354,0,0.69405,0.10856,0.90397,0.32668
	c0.20978,0.21812,0.31417,0.52812,0.31417,0.93V36.06712z"/>
<path fill="#FFFFFF" d="M25.73748,31.35961h-0.84646c-0.65034,0-1.09492,0.22243-1.33389,0.66702h-0.05119v-0.51345
	c0-0.10238-0.04702-0.15356-0.14091-0.15356h-0.37269c-0.08555,0-0.1284,0.05119-0.1284,0.15356v6.23335
	c0,0.10324,0.04285,0.15443,0.1284,0.15443h0.37269c0.09389,0,0.14091-0.05119,0.14091-0.15443v-4.55294
	c0-0.40188,0.1169-0.71188,0.35285-0.93c0.2348-0.21812,0.55731-0.32668,0.96753-0.32668h0.83395
	c0.39354,0,0.69304,0.11057,0.89765,0.333c0.20561,0.22229,0.30784,0.53431,0.30784,0.93618v4.54043
	c0,0.10324,0.04702,0.15443,0.14091,0.15443h0.37269c0.08555,0,0.1284-0.05119,0.1284-0.15443v-4.56545
	c0-0.56464-0.15874-1.00937-0.47492-1.33389C26.71651,31.52252,26.28444,31.35961,25.73748,31.35961z"/>
<path fill="#FFFFFF" d="M31.57327,28.88393c-1.08658,0-1.62937,0.59901-1.62937,1.7963v0.56364
	c0,0.07721-0.03868,0.11575-0.11488,0.11575h-0.82144c-0.09389,0-0.14091,0.04702-0.14091,0.14091V31.796
	c0,0.09389,0.04702,0.14091,0.14091,0.14091h0.82144c0.07621,0,0.11488,0.03853,0.11488,0.11474v5.69487
	c0,0.10324,0.04702,0.15443,0.14091,0.15443h0.37255c0.09403,0,0.14091-0.05119,0.14091-0.15443v-5.69487
	c0-0.07621,0.03868-0.11474,0.11589-0.11474h1.16696c0.10223,0,0.15342-0.04702,0.15342-0.14091v-0.29548
	c0-0.09389-0.05119-0.14091-0.15342-0.14091h-1.16696c-0.07721,0-0.11589-0.03853-0.11589-0.11575v-0.53862
	c0-0.41856,0.07736-0.73071,0.23078-0.93633c0.15442-0.20446,0.42373-0.30784,0.80778-0.30784h0.24429
	c0.10223,0,0.15342-0.04702,0.15342-0.14091v-0.29533c0-0.09403-0.05119-0.14091-0.15342-0.14091H31.57327z"/>
<path fill="#FFFFFF" d="M14.45265,9.90043h3.02245c0.26494,0,0.39741,0.12165,0.39741,0.36767v0.76237
	c0,0.24331-0.13247,0.36497-0.39741,0.36497h-3.02245c-0.20006,0-0.30008,0.10003-0.30008,0.30008v14.74999
	c0,0.26494-0.12166,0.39741-0.36497,0.39741h-0.96513c-0.24331,0-0.36496-0.13247-0.36496-0.39741V11.69552
	c0-0.20006-0.10003-0.30008-0.29738-0.30008h-2.12761c-0.24331,0-0.36496-0.12166-0.36496-0.36497V10.2681
	c0-0.24601,0.12165-0.36767,0.36496-0.36767h2.12761c0.19735,0,0.29738-0.09732,0.29738-0.29738V8.14049
	c0-3.10085,1.40579-4.64993,4.22008-4.64993h0.79752c0.26494,0,0.39741,0.12165,0.39741,0.36497v0.76507
	c0,0.24331-0.13247,0.36496-0.39741,0.36496h-0.6326c-0.99487,0-1.69236,0.26494-2.09247,0.79752
	c-0.39741,0.52988-0.59746,1.33821-0.59746,2.42499v1.39498C14.15257,9.80311,14.2526,9.90043,14.45265,9.90043z"/>
<path fill="#FFFFFF" d="M21.19505,7.11048V3.92312c0-0.24601,0.11084-0.36767,0.33253-0.36767h0.99487
	c0.22168,0,0.33252,0.12165,0.33252,0.36767v3.18736c0,0.26494-0.11084,0.40011-0.33252,0.40011h-0.99487
	C21.30589,7.51059,21.19505,7.37542,21.19505,7.11048z M21.19505,26.44551V10.30054c0-0.26494,0.11084-0.40011,0.33253-0.40011
	H22.49c0.24331,0,0.36497,0.13517,0.36497,0.40011v16.14497c0,0.26494-0.11084,0.39741-0.33252,0.39741h-0.99487
	C21.30589,26.84292,21.19505,26.71045,21.19505,26.44551z"/>
<path fill="#FFFFFF" d="M35.17997,26.84292h-2.85754c-1.43823,0-2.57368-0.41903-3.40364-1.26251
	c-0.82996-0.84077-1.24629-1.99244-1.24629-3.455v-7.50747c0-1.45986,0.41633-2.61153,1.24629-3.455
	c0.82996-0.84077,1.9654-1.26251,3.40364-1.26251h2.85754c1.43823,0,2.57909,0.42174,3.42256,1.26251
	c0.84077,0.84347,1.26251,1.99514,1.26251,3.455v7.50747c0,1.46256-0.42174,2.61423-1.26251,3.455
	C37.75905,26.42389,36.6182,26.84292,35.17997,26.84292z M32.4549,25.34792h2.5926c1.0192,0,1.79779-0.28116,2.34118-0.84618
	c0.54339-0.56502,0.81374-1.36794,0.81374-2.40877v-7.43988c0-1.04083-0.27034-1.84375-0.81374-2.40877
	c-0.54339-0.56502-1.32198-0.84888-2.34118-0.84888h-2.5926c-1.0165,0-1.79239,0.28386-2.32496,0.84888
	c-0.52987,0.56502-0.79752,1.36794-0.79752,2.40877v7.43988c0,1.04082,0.26764,1.84375,0.79752,2.40877
	C30.66251,25.06676,31.4384,25.34792,32.4549,25.34792z"/>
<path fill="#FFFFFF" d="M45.77747,26.84292h-0.96513c-0.22168,0-0.33252-0.13247-0.33252-0.39741V10.30054
	c0-0.26494,0.11084-0.40011,0.33252-0.40011h0.96513c0.24331,0,0.36496,0.13517,0.36496,0.40011v1.39498h0.13247
	c0.24331-0.46499,0.67586-0.88132,1.29495-1.24629c0.61909-0.36496,1.38416-0.5488,2.29252-0.5488h1.29495
	c0.24331,0,0.36496,0.12165,0.36496,0.36767v0.79481c0,0.24601-0.12165,0.35685-0.36496,0.33252h-1.55989
	c-1.08678,0-1.93296,0.33252-2.54124,0.99757c-0.61098,0.66505-0.91376,1.56259-0.91376,2.68993v11.36258
	C46.14243,26.71045,46.02078,26.84292,45.77747,26.84292z"/>
<path fill="#FFFFFF" d="M55.04488,7.16513V3.97777c0-0.24601,0.11084-0.36767,0.33253-0.36767h0.99487
	c0.22168,0,0.33252,0.12165,0.33252,0.36767v3.18736c0,0.26494-0.11084,0.40011-0.33252,0.40011H55.3774
	C55.15572,7.56524,55.04488,7.43006,55.04488,7.16513z M55.04488,37.49979V10.35519c0-0.26494,0.11084-0.40011,0.33253-0.40011
	h0.96243c0.24331,0,0.36496,0.13517,0.36496,0.40011v27.14459c0,0.26494-0.11084,0.39741-0.33252,0.39741H55.3774
	C55.15572,37.89719,55.04488,37.76472,55.04488,37.49979z"/>
<g>
	<path fill="#FFFFFF" d="M33.1393,37.81861v-0.90139c0-0.47863,0.20429-0.87137,0.61454-1.17822l2.01874-1.53761
		c0.34771-0.266,0.52199-0.60787,0.52199-1.02396v-0.40025c0-0.6554-0.32437-0.9831-0.9731-0.9831h-0.73795
		c-0.64206,0-0.96309,0.3277-0.96309,0.9831v0.46112c0,0.08255-0.03752,0.12341-0.11257,0.12341h-0.29685
		c-0.07588,0-0.1134-0.04086-0.1134-0.12341v-0.47112c0-0.44361,0.13008-0.79215,0.3894-1.04481
		c0.26016-0.25266,0.61121-0.3794,1.05565-0.3794h0.82967c0.44444,0,0.79465,0.12508,1.05064,0.3744
		c0.25599,0.24932,0.3844,0.5987,0.3844,1.04981v0.43026c0,0.53283-0.21513,0.96309-0.64623,1.29079L34.1224,36.0567
		c-0.28684,0.21847-0.43026,0.4878-0.43026,0.80883v0.59453h3.03269c0.07505,0,0.11257,0.03752,0.11257,0.11257v0.24598
		c0,0.07505-0.03752,0.11257-0.11257,0.11257h-3.46296C33.18016,37.93118,33.1393,37.89366,33.1393,37.81861z"/>
	<path fill="#FFFFFF" d="M40.56719,37.93118h-1.0248c-0.44361,0-0.79549-0.12925-1.05481-0.3894
		c-0.26016-0.25933-0.38941-0.61454-0.38941-1.06565v-3.67809c0-0.45111,0.12925-0.80633,0.38941-1.06565
		c0.25932-0.25933,0.61121-0.3894,1.05481-0.3894h1.0248c0.44444,0,0.79382,0.13008,1.05064,0.3894
		c0.25599,0.25933,0.38357,0.61455,0.38357,1.06565v3.67809c0,0.45111-0.12758,0.80633-0.38357,1.06565
		C41.36101,37.80194,41.01163,37.93118,40.56719,37.93118z M39.58408,37.47007h0.94225c0.31436,0,0.55367-0.08672,0.71711-0.26099
		c0.16427-0.17427,0.24598-0.42526,0.24598-0.75296v-3.63723c0-0.32853-0.08171-0.57952-0.24598-0.7538
		c-0.16343-0.17427-0.40275-0.26099-0.71711-0.26099h-0.94225c-0.31436,0-0.55367,0.08672-0.71794,0.26099
		c-0.16343,0.17427-0.24598,0.42526-0.24598,0.7538v3.63723c0,0.3277,0.08255,0.57869,0.24598,0.75296
		C39.03041,37.38335,39.26973,37.47007,39.58408,37.47007z"/>
	<path fill="#FFFFFF" d="M43.30303,37.81861v-0.90139c0-0.47863,0.20512-0.87137,0.61454-1.17822l2.01874-1.53761
		c0.34855-0.266,0.52282-0.60787,0.52282-1.02396v-0.40025c0-0.6554-0.32436-0.9831-0.97393-0.9831h-0.73712
		c-0.64206,0-0.96309,0.3277-0.96309,0.9831v0.46112c0,0.08255-0.03836,0.12341-0.1134,0.12341h-0.29685
		c-0.07504,0-0.11257-0.04086-0.11257-0.12341v-0.47112c0-0.44361,0.12925-0.79215,0.3894-1.04481
		c0.25933-0.25266,0.61121-0.3794,1.05482-0.3794h0.83051c0.4436,0,0.79382,0.12508,1.04981,0.3744
		c0.25682,0.24932,0.3844,0.5987,0.3844,1.04981v0.43026c0,0.53283-0.21513,0.96309-0.6454,1.29079l-2.03875,1.56846
		c-0.28684,0.21847-0.43026,0.4878-0.43026,0.80883v0.59453h3.03269c0.07505,0,0.11257,0.03752,0.11257,0.11257v0.24598
		c0,0.07505-0.03753,0.11257-0.11257,0.11257h-3.46379C43.34389,37.93118,43.30303,37.89366,43.30303,37.81861z"/>
	<path fill="#FFFFFF" d="M51.57144,37.93118h-0.276c-0.07588,0-0.1134-0.04086-0.1134-0.12257v-1.21908h-2.97099
		c-0.10256,0-0.15426-0.04836-0.15426-0.14425v-0.18428c0-0.06087,0.02418-0.14009,0.07254-0.23515l2.68415-4.52944
		c0.0617-0.10173,0.14342-0.15343,0.24598-0.15343h0.48113c0.09589,0,0.14342,0.0517,0.14342,0.15343v4.63201h0.7688
		c0.07505,0,0.11257,0.03419,0.11257,0.10173v0.24598c0,0.07588-0.03753,0.1134-0.11257,0.1134h-0.7688v1.21908
		C51.68401,37.89033,51.64648,37.93118,51.57144,37.93118z M51.18203,36.12841v-4.37518l-2.58158,4.37518H51.18203z"/>
</g>
</svg>
